<?xml version="1.0" encoding="UTF-8"?>
<!DOCTYPE svg PUBLIC "-//W3C//DTD SVG 1.1//EN" "http://www.w3.org/Graphics/SVG/1.1/DTD/svg11.dtd">
<svg xmlns="http://www.w3.org/2000/svg" version="1.1" width="512px" height="512px" style="shape-rendering:geometricPrecision; text-rendering:geometricPrecision; image-rendering:optimizeQuality; fill-rule:evenodd; clip-rule:evenodd" xmlns:xlink="http://www.w3.org/1999/xlink">
    <g><path style="opacity:0.999" fill="#aa5555" d="M 40.5,-0.5 C 183.833,-0.5 327.167,-0.5 470.5,-0.5C 491.833,5.5 505.5,19.1667 511.5,40.5C 511.5,183.833 511.5,327.167 511.5,470.5C 505.5,491.833 491.833,505.5 470.5,511.5C 327.167,511.5 183.833,511.5 40.5,511.5C 19.1667,505.5 5.5,491.833 -0.5,470.5C -0.5,327.167 -0.5,183.833 -0.5,40.5C 5.5,19.1667 19.1667,5.5 40.5,-0.5 Z"/></g>
    <g><path style="opacity:1" fill="#fdfbfb" d="M 97.5,145.5 C 151.834,145.333 206.168,145.5 260.5,146C 212.377,214.413 164.377,282.913 116.5,351.5C 149.162,352.667 181.828,352.833 214.5,352C 225.689,350.943 235.189,346.443 243,338.5C 249.163,329.173 253.997,319.173 257.5,308.5C 259.045,307.548 260.712,307.215 262.5,307.5C 259.942,327.131 256.609,346.631 252.5,366C 192.834,366.5 133.168,366.667 73.5,366.5C 73.3367,364.143 73.5034,361.81 74,359.5C 120.695,292.971 167.195,226.305 213.5,159.5C 187.173,158.333 160.84,158.167 134.5,159C 116.416,159.622 105.582,168.789 102,186.5C 100.525,191.063 99.6917,195.73 99.5,200.5C 97.5,200.5 95.5,200.5 93.5,200.5C 94.0053,182.103 95.3387,163.77 97.5,145.5 Z"/></g>
    <g><path style="opacity:1" fill="#fdfbfb" d="M 318.5,213.5 C 320.833,213.5 323.167,213.5 325.5,213.5C 325.168,223.522 325.501,233.522 326.5,243.5C 327.107,243.376 327.44,243.043 327.5,242.5C 337.836,229.327 350.836,219.827 366.5,214C 386.826,209.968 401.326,217.135 410,235.5C 412.689,242.943 414.355,250.609 415,258.5C 415.333,288.167 415.667,317.833 416,347.5C 418.495,355.48 423.995,359.48 432.5,359.5C 433.919,360.451 435.585,360.784 437.5,360.5C 437.5,362.167 437.5,363.833 437.5,365.5C 412.833,365.5 388.167,365.5 363.5,365.5C 363.5,363.5 363.5,361.5 363.5,359.5C 368.566,359.66 373.566,359.16 378.5,358C 384.394,356.022 387.228,351.856 387,345.5C 387.667,315.167 387.667,284.833 387,254.5C 382.885,235.515 371.385,229.015 352.5,235C 342.277,238.855 333.777,245.022 327,253.5C 326.333,284.5 326.333,315.5 327,346.5C 327.711,353.545 331.545,357.711 338.5,359C 342.486,359.499 346.486,359.666 350.5,359.5C 350.5,361.833 350.5,364.167 350.5,366.5C 325.833,366.5 301.167,366.5 276.5,366.5C 276.5,364.167 276.5,361.833 276.5,359.5C 282.563,360.162 288.23,358.996 293.5,356C 295.604,353.958 296.771,351.458 297,348.5C 298.621,316.868 298.955,285.201 298,253.5C 297.625,248.79 296.958,244.123 296,239.5C 293.925,235.463 290.592,233.796 286,234.5C 282.795,234.393 279.795,235.06 277,236.5C 274.806,234.611 274.306,232.444 275.5,230C 289.74,224.199 304.073,218.699 318.5,213.5 Z"/></g>
    <g><path style="opacity:1" fill="#debdbd" d="M 318.5,213.5 C 320.948,212.527 323.615,212.194 326.5,212.5C 326.173,222.681 326.506,232.681 327.5,242.5C 327.44,243.043 327.107,243.376 326.5,243.5C 325.501,233.522 325.168,223.522 325.5,213.5C 323.167,213.5 320.833,213.5 318.5,213.5 Z"/></g>
    <g><path style="opacity:1" fill="#d5abab" d="M 432.5,359.5 C 434.5,359.5 436.5,359.5 438.5,359.5C 438.5,361.833 438.5,364.167 438.5,366.5C 413.328,366.831 388.328,366.498 363.5,365.5C 388.167,365.5 412.833,365.5 437.5,365.5C 437.5,363.833 437.5,362.167 437.5,360.5C 435.585,360.784 433.919,360.451 432.5,359.5 Z"/></g>
</svg>
